<?xml version="1.0" encoding="UTF-8"?>
<svg width="84px" height="84px" viewBox="0 0 84 84" version="1.1" xmlns="http://www.w3.org/2000/svg" xmlns:xlink="http://www.w3.org/1999/xlink">
    <title>确认</title>
    <g id="1.2版" stroke="none" stroke-width="1" fill="none" fill-rule="evenodd">
        <g id="正式版-支付完成" transform="translate(-712.000000, -306.000000)" fill="#6884FF" fill-rule="nonzero">
            <g id="编组-14" transform="translate(575.000000, 190.000000)">
                <g id="确认" transform="translate(137.000000, 116.000000)">
                    <path d="M58.4337349,27.7881356 L35.1084337,50.3813559 L25.5662651,40.9237288 C23.9759036,39.8728814 22.3855422,39.8728814 20.7951807,40.9237288 C19.7349398,42.5 19.7349398,44.6016949 20.7951807,45.6525424 L32.9879518,57.2118644 C34.0481928,58.2627119 36.1686747,58.2627119 37.7590361,57.2118644 L63.2048193,31.9915254 C64.2650602,30.940678 64.2650602,28.8389831 63.2048193,27.7881356 C62.1445783,26.7372881 60.0240964,26.7372881 58.4337349,27.7881356 Z" id="路径"></path>
                    <path d="M42,84 C18.9,84 0,65.1 0,42 C0,18.9 18.9,0 42,0 C50.925,0 59.325,2.625 66.675,7.875 C67.725,8.925 68.25,10.5 67.2,11.55 C66.15,12.6 64.575,13.125 63.525,12.075 C57.225,7.35 49.875,5.25 42,5.25 C21.525,5.25 5.25,21.525 5.25,42 C5.25,62.475 21.525,78.75 42,78.75 C62.475,78.75 78.75,62.475 78.75,42 C78.75,35.7 77.175,29.4 74.025,23.625 C73.5,22.575 73.5,21 75.075,19.95 C76.125,19.425 77.7,19.425 78.75,21 C81.9,27.3 84,34.65 84,42 C84,65.1 65.1,84 42,84 Z" id="路径"></path>
                </g>
            </g>
        </g>
    </g>
</svg>